HIERARCHY
ROOT joint_Root
{
	OFFSET 0.0 0.0 0.0
	CHANNELS 6 Xposition Yposition Zposition Zrotation Xrotation Yrotation 
	JOINT Hips
	{
		OFFSET -0.726466 93.3139 -2.00062
		CHANNELS 6 Xposition Yposition Zposition Zrotation Xrotation Yrotation 
		JOINT Spine
		{
			OFFSET 15.7357 0.0 0.0
			CHANNELS 6 Xposition Yposition Zposition Zrotation Xrotation Yrotation 
			JOINT Chest
			{
				OFFSET 8.98455 -0.406207 0.0
				CHANNELS 6 Xposition Yposition Zposition Zrotation Xrotation Yrotation 
				JOINT Neck
				{
					OFFSET 16.3773 0.0 0.0
					CHANNELS 6 Xposition Yposition Zposition Zrotation Xrotation Yrotation 
					JOINT Head
					{
						OFFSET 6.45672 0.0 0.0
						CHANNELS 6 Xposition Yposition Zposition Zrotation Xrotation Yrotation 
						End Site
						{
							OFFSET 0.0 0.0 0.0
						}
					}
				}
				JOINT Shoulder_L
				{
					OFFSET 12.9942 -0.242716 4.98039
					CHANNELS 6 Xposition Yposition Zposition Zrotation Xrotation Yrotation 
					JOINT UpperArm_L
					{
						OFFSET 5.34809 0.0 0.0
						CHANNELS 6 Xposition Yposition Zposition Zrotation Xrotation Yrotation 
						JOINT LowerArm_L
						{
							OFFSET 24.3286 1.87007e-05 0.0
							CHANNELS 6 Xposition Yposition Zposition Zrotation Xrotation Yrotation 
							JOINT Hand_L
							{
								OFFSET 22.2916 0.0 0.0
								CHANNELS 6 Xposition Yposition Zposition Zrotation Xrotation Yrotation 
								End Site
								{
									OFFSET 0.0 0.0 0.0
								}
							}
						}
					}
				}
				JOINT Shoulder_R
				{
					OFFSET 12.9945 -0.242716 -4.98039
					CHANNELS 6 Xposition Yposition Zposition Zrotation Xrotation Yrotation 
					JOINT UpperArm_R
					{
						OFFSET -5.34813 0.0 0.0
						CHANNELS 6 Xposition Yposition Zposition Zrotation Xrotation Yrotation 
						JOINT LowerArm_R
						{
							OFFSET -24.3289 0.000322201 0.0
							CHANNELS 6 Xposition Yposition Zposition Zrotation Xrotation Yrotation 
							JOINT Hand_R
							{
								OFFSET -22.2915 -0.000108084 0.0
								CHANNELS 6 Xposition Yposition Zposition Zrotation Xrotation Yrotation 
								End Site
								{
									OFFSET 0.0 0.0 0.0
								}
							}
						}
					}
				}
			}
		}
		JOINT UpperLeg_L
		{
			OFFSET -2.19248 -6.46944 0.0
			CHANNELS 6 Xposition Yposition Zposition Zrotation Xrotation Yrotation 
			JOINT LowerLeg_L
			{
				OFFSET 39.0811 0.0 -1.23785e-05
				CHANNELS 6 Xposition Yposition Zposition Zrotation Xrotation Yrotation 
				JOINT Foot_L
				{
					OFFSET 40.9854 0.0 -1.26872e-05
					CHANNELS 6 Xposition Yposition Zposition Zrotation Xrotation Yrotation 
					JOINT Toes_L
					{
						OFFSET 11.7543 0.0 0.0
						CHANNELS 6 Xposition Yposition Zposition Zrotation Xrotation Yrotation 
						End Site
						{
							OFFSET 0.0 0.0 0.0
						}
					}
				}
			}
		}
		JOINT UpperLeg_R
		{
			OFFSET -2.19251 6.46944 0.0
			CHANNELS 6 Xposition Yposition Zposition Zrotation Xrotation Yrotation 
			JOINT LowerLeg_R
			{
				OFFSET -39.0811 -0.00228153 -0.0401928
				CHANNELS 6 Xposition Yposition Zposition Zrotation Xrotation Yrotation 
				JOINT Foot_R
				{
					OFFSET -40.9854 0.0 0.0
					CHANNELS 6 Xposition Yposition Zposition Zrotation Xrotation Yrotation 
					JOINT Toes_R
					{
						OFFSET -11.7543 0.0 0.0
						CHANNELS 6 Xposition Yposition Zposition Zrotation Xrotation Yrotation 
						End Site
						{
							OFFSET 0.0 0.0 0.0
						}
					}
				}
			}
		}
	}
}
MOTION
Frames:	4
Frame Time:	0.0333333
0.000000 0.000000 0.000000 0.000000 0.000000 -0.000000 4.177100 92.648200 -460.330000 87.908200 5.964020 -10.773200 15.735700 0.000005 -0.000001 58.284400 81.227200 -56.697100 8.984550 -0.406207 -0.000000 7.361380 -9.195850 3.769340 16.377300 -0.000001 -0.000001 -1.273080 -1.611760 -0.461504 6.456720 -0.000001 -0.000000 -5.298280 4.581140 2.936470 12.994200 -0.242716 4.980390 -87.075000 -9.928410 -73.492900 5.348090 -0.000007 -0.000001 -70.423900 34.415300 -30.783800 24.328600 0.000019 0.000005 -6.277140 2.885880 -114.593000 22.291600 -0.000001 0.000005 9.263620 5.645080 -14.533800 12.994500 -0.242716 -4.980390 89.939400 0.129685 -64.901800 -5.348130 -0.000001 -0.000004 -72.460400 40.073500 17.034700 -24.328900 0.000322 -0.000009 -16.305600 1.069760 -93.643600 -22.291500 -0.000108 -0.000004 10.338600 5.532710 -7.914980 -2.192480 -6.469440 -0.000000 -175.295000 -4.456880 4.498550 39.081100 -0.000007 -0.000012 0.007773 -0.012840 31.186300 40.985400 -0.000006 -0.000013 -2.157950 1.736850 -38.541600 11.754300 -0.000000 0.000003 -0.006824 -0.078158 -19.758400 -2.192510 6.469440 -0.000001 -168.783000 14.024100 146.353000 -39.081100 -0.002282 -0.040193 -0.017198 0.038975 27.748200 -40.985400 0.000008 0.000006 -0.943892 4.788480 -69.477900 -11.754300 -0.000006 -0.000006 -0.033986 -0.235184 -26.218300
0.000000 0.000000 0.000000 0.000000 0.000000 -0.000000 4.655050 91.209100 -453.619000 89.160900 3.835010 -9.078440 15.735700 0.000005 -0.000001 63.747400 81.439900 -62.589800 8.984550 -0.406207 -0.000000 7.716230 -7.543170 2.824780 16.377300 -0.000001 -0.000001 -0.541358 -1.310930 -0.754615 6.456720 -0.000001 -0.000000 -5.211120 4.438130 3.016110 12.994200 -0.242716 4.980390 -87.341800 -8.924680 -73.338200 5.348090 -0.000007 -0.000001 -73.243000 35.350300 -25.428600 24.328600 0.000019 0.000005 -5.715330 2.021160 -109.407000 22.291600 -0.000001 0.000005 10.888800 5.654630 -15.472800 12.994500 -0.242716 -4.980390 89.096600 1.976410 -65.425700 -5.348130 -0.000001 -0.000004 -69.939100 40.589700 12.207700 -24.328900 0.000322 -0.000009 -20.497300 2.341420 -96.234700 -22.291500 -0.000108 -0.000004 10.236400 5.536100 -8.068350 -2.192480 -6.469440 -0.000000 -177.967000 -3.903370 2.747310 39.081100 -0.000007 -0.000012 -0.015413 0.015550 44.751700 40.985400 -0.000006 -0.000013 0.314441 -4.706690 -41.816900 11.754300 -0.000000 0.000003 -0.004637 -0.057921 -18.933200 -2.192510 6.469440 -0.000001 -170.115000 13.476000 148.412000 -39.081100 -0.002282 -0.040193 -0.009690 0.021639 30.976000 -40.985400 0.000008 0.000006 2.884900 3.783770 -67.506200 -11.754300 -0.000006 -0.000006 -0.034942 -0.239283 -26.389000
0.000000 0.000000 0.000000 0.000000 0.000000 -0.000000 4.680620 88.855400 -446.990000 88.385800 2.285920 -7.495590 15.735700 0.000005 -0.000001 71.399400 81.704600 -69.834200 8.984550 -0.406207 -0.000000 8.057830 -5.265260 3.500110 16.377300 -0.000001 -0.000001 0.009372 -1.180180 -1.095160 6.456720 -0.000001 -0.000000 -4.951830 4.009030 2.299070 12.994200 -0.242716 4.980390 -87.767500 -7.235760 -72.800700 5.348090 -0.000007 -0.000001 -74.504600 36.181500 -20.640600 24.328600 0.000019 0.000005 -4.101810 0.816057 -101.200000 22.291600 -0.000001 0.000005 11.041100 5.651600 -15.156400 12.994500 -0.242716 -4.980390 88.222000 3.983790 -65.923300 -5.348130 -0.000001 -0.000004 -65.310600 40.534400 4.377740 -24.328900 0.000322 -0.000009 -20.435700 3.010640 -98.023300 -22.291500 -0.000108 -0.000004 11.482900 5.555070 -8.939610 -2.192480 -6.469440 -0.000000 -177.316000 -5.295900 -2.899960 39.081100 -0.000007 -0.000012 -0.055958 0.028271 63.200900 40.985400 -0.000006 -0.000013 1.675870 -7.032790 -42.244800 11.754300 -0.000000 0.000003 -0.005937 -0.070270 -19.436600 -2.192510 6.469440 -0.000001 -169.681000 9.371350 149.843000 -39.081100 -0.002282 -0.040193 0.055909 -0.065287 38.872400 -40.985400 0.000008 0.000006 12.581700 -1.292230 -67.123300 -11.754300 -0.000006 -0.000006 -0.028199 -0.209087 -25.134700
0.000000 0.000000 0.000000 0.000000 0.000000 -0.000000 4.577040 86.070200 -441.077000 86.284400 0.160947 -4.577680 15.735700 0.000005 -0.000001 82.034400 81.139000 -79.582500 8.984550 -0.406207 -0.000000 9.847750 -2.396350 5.107300 16.377300 -0.000001 -0.000001 -0.780127 -0.492872 -1.181710 6.456720 -0.000001 -0.000000 -4.361310 3.458420 0.676097 12.994200 -0.242716 4.980390 -88.368300 -4.971100 -71.799300 5.348090 -0.000007 -0.000001 -73.694800 36.719400 -16.646000 24.328600 0.000019 0.000005 -1.926790 0.011298 -90.293200 22.291600 -0.000001 0.000005 9.115230 5.652460 -15.265500 12.994500 -0.242716 -4.980390 87.341200 6.362180 -67.258400 -5.348130 -0.000001 -0.000004 -57.958200 39.175900 -6.961730 -24.328900 0.000322 -0.000009 -19.911400 3.548070 -99.695000 -22.291500 -0.000108 -0.000004 14.340700 5.571870 -9.770220 -2.192480 -6.469440 -0.000000 -175.624000 -6.471730 -10.327900 39.081100 -0.000007 -0.000012 -0.164206 0.018929 83.427000 40.985400 -0.000006 -0.000013 4.077710 -7.863940 -43.237600 11.754300 -0.000000 0.000003 -0.007996 -0.088012 -20.160700 -2.192510 6.469440 -0.000001 -168.673000 3.809760 151.884000 -39.081100 -0.002282 -0.040193 0.114604 -0.095008 49.529200 -40.985400 0.000008 0.000006 11.902600 -5.832350 -73.972400 -11.754300 -0.000006 -0.000006 -0.012173 -0.119218 -21.433400
